<svg width="136" height="121" viewBox="0 0 136 121" fill="none" xmlns="http://www.w3.org/2000/svg">
<path fill-rule="evenodd" clip-rule="evenodd" d="M48.668 22.6794L32.4045 38.9429L34.526 41.0643L32.4049 43.1854L30.9908 41.7713C30.6003 41.3808 29.9671 41.3808 29.5766 41.7713L19.6771 51.6708C19.2866 52.0613 19.2866 52.6945 19.6771 53.085L30.9908 64.3987C31.3813 64.7893 32.0145 64.7893 32.405 64.3987L42.3045 54.4992C42.695 54.1087 42.695 53.4756 42.3045 53.085L40.8902 51.6707L43.0113 49.5496L44.354 50.8923C44.8425 51.3808 45.5369 51.6034 46.2185 51.4898C48.27 51.1479 50.3772 51.4647 52.2374 52.3949L53.5464 53.0494L95.4926 98.643C99.0007 102.456 104.978 102.581 108.642 98.9168C112.306 95.253 112.182 89.2754 108.368 85.7673L63.0356 44.0612L62.5273 43.3269C60.9248 41.0122 60.5057 38.0781 61.3959 35.4073L61.2801 35.0311C59.8558 30.402 62.9042 25.5954 67.6988 24.9105L76.5958 23.6395C77.5178 23.5078 78.0954 22.5732 77.8009 21.6897C77.7098 21.4165 77.5202 21.1872 77.2692 21.0463L74.1069 19.2724C67.3851 15.5016 59.1212 15.7956 52.6844 20.0345L48.668 22.6794Z" fill="#02437E"/>
<path fill-rule="evenodd" clip-rule="evenodd" d="M97.6824 20.3345C91.5157 18.1398 84.3641 19.5107 79.4278 24.447C72.5936 31.2811 72.5936 42.3615 79.4278 49.1957C86.262 56.0299 97.3423 56.0299 104.177 49.1957C108.829 44.5429 110.314 37.9218 108.632 32.0125L99.1132 41.5311C98.0914 42.5529 96.5978 42.9442 95.2063 42.5545L88.6202 40.7104L86.7761 34.1243C86.3864 32.7328 86.7777 31.2392 87.7995 30.2174L97.6824 20.3345Z" fill="#A0D0FC"/>
<path fill-rule="evenodd" clip-rule="evenodd" d="M86.1456 51.6707L76.9532 42.4783L30.9116 84.8366C27.0983 88.3448 26.9739 94.3223 30.6377 97.9861C34.3016 101.65 40.2791 101.526 43.7873 97.7123L86.1456 51.6707ZM37.9999 94C39.6567 94 40.9999 92.6569 40.9999 91C40.9999 89.3432 39.6567 88 37.9999 88C36.343 88 34.9999 89.3432 34.9999 91C34.9999 92.6569 36.343 94 37.9999 94Z" fill="#A0D0FC"/>
</svg>
