<svg width="207" height="33" viewBox="0 0 207 33" fill="none" xmlns="http://www.w3.org/2000/svg">
<rect width="207" height="33" fill="white"/>
<g clip-path="url(#clip0_2911_41059)">
<path fill-rule="evenodd" clip-rule="evenodd" d="M38.7099 8.12596C41.0146 8.12596 43.0632 8.64139 44.8984 9.67227C46.7336 10.7031 48.142 12.1206 49.209 14.0105C50.2333 15.8575 50.7454 17.9622 50.7454 20.3246C50.7454 22.6441 50.2333 24.7488 49.209 26.5958C48.1847 28.4427 46.7763 29.9031 44.9411 30.934C43.1059 31.9649 41.0146 32.4803 38.7099 32.4803C36.4053 32.4803 34.314 31.9649 32.4788 30.934C30.6436 29.8602 29.2352 28.4427 28.2109 26.5958C27.1866 24.7488 26.6744 22.6441 26.6744 20.3246C26.6744 17.9622 27.1866 15.8575 28.2109 14.0105C29.2352 12.1635 30.6436 10.7031 32.4788 9.67227C34.314 8.64139 36.4053 8.12596 38.7099 8.12596ZM42.7217 27.4574C43.874 26.7701 44.813 25.7822 45.4532 24.5366C46.136 23.2909 46.4348 21.8735 46.4348 20.2842C46.4348 18.6949 46.0934 17.2775 45.4532 16.0319C44.813 14.7862 43.9167 13.7983 42.7217 13.1111C41.5694 12.3809 40.2036 12.0372 38.7526 12.0372C37.3015 12.0372 35.9784 12.4238 34.7834 13.1111C33.5884 13.7983 32.6921 14.7862 32.0093 16.0319C31.3691 17.2775 31.0276 18.6949 31.0276 20.2842C31.0276 21.8735 31.3264 23.2909 32.0093 24.5366C32.6921 25.7822 33.5884 26.7701 34.7834 27.4574C35.9357 28.1876 37.3015 28.5312 38.7526 28.5312C40.2036 28.5312 41.5694 28.1446 42.7217 27.4574Z" fill="#222222"/>
<path d="M64.8722 12.0377C65.9819 12.0377 66.9635 12.2095 67.8171 12.5961C68.6707 12.9826 69.4816 13.541 70.2071 14.3142C70.6766 14.8296 71.2314 15.0873 71.9143 15.0873C72.2984 15.0873 72.6398 15.0014 72.8959 14.7867C73.5361 14.3571 73.8348 13.7987 73.8348 13.1544C73.8348 12.7249 73.7068 12.3383 73.408 11.9947C71.146 9.37458 68.2865 8.04304 64.8722 8.04304C62.6102 8.04304 60.5616 8.55847 58.7691 9.58935C56.9766 10.6202 55.5682 12.0806 54.5439 13.9276C53.5623 15.7746 53.0501 17.8793 53.0501 20.2417C53.0501 22.5182 53.5623 24.5799 54.5866 26.4699C55.6109 28.3169 57.0619 29.7773 58.8971 30.8511C60.7323 31.9249 62.7809 32.4404 65.0856 32.4404C68.2439 32.4404 70.8473 31.4524 72.9386 29.5195C73.28 29.1759 73.4507 28.7893 73.4507 28.3169C73.4507 27.7155 73.1946 27.2001 72.6398 26.7276C72.2984 26.4699 71.9143 26.341 71.4875 26.341C70.9753 26.341 70.4205 26.5558 69.8657 26.9424C68.628 27.9732 67.0488 28.4887 65.0856 28.4887C63.5918 28.4887 62.2261 28.145 61.0738 27.4148C59.8788 26.7276 58.9825 25.7397 58.3423 24.494C57.7021 23.2484 57.3607 21.831 57.3607 20.2417C57.3607 17.7504 58.0436 15.7746 59.452 14.2712C60.8177 12.8108 62.6102 12.0377 64.8722 12.0377Z" fill="#222222"/>
<path d="M94.961 29.0922L86.5105 18.6546L94.5342 11.4815C95.0037 11.0949 95.2171 10.6224 95.2171 9.97812C95.2171 9.46269 95.0464 8.9902 94.6622 8.60363C94.2781 8.13114 93.8087 7.91638 93.1685 7.91638C92.6563 7.91638 92.1869 8.08819 91.8027 8.47477L81.2183 18.0103V2.71906C81.2183 2.07477 81.0049 1.55933 80.6208 1.17275C80.2367 0.786176 79.7246 0.571411 79.0844 0.571411C78.4442 0.571411 77.932 0.786176 77.5479 1.17275C77.1638 1.55933 76.9504 2.07477 76.9504 2.71906V30.1231C76.9504 30.7674 77.1638 31.2828 77.5479 31.6694C77.932 32.056 78.4442 32.2707 79.0844 32.2707C79.7246 32.2707 80.2367 32.056 80.6208 31.6694C81.0049 31.2828 81.2183 30.7674 81.2183 30.1231V23.4224L83.395 21.4895L91.6747 31.7983C92.1015 32.3137 92.6136 32.5714 93.2538 32.5714C93.766 32.5714 94.1928 32.3996 94.6622 32.056C95.1744 31.6264 95.4305 31.0681 95.4305 30.4238C95.4305 29.9083 95.2598 29.4788 94.961 29.0922Z" fill="#222222"/>
<path d="M21.809 0.571411C21.1688 0.571411 20.6567 0.786176 20.2299 1.17275C19.8031 1.60228 19.5897 2.11772 19.5897 2.80497V12.0828V12.0828V15.4761V15.4761C19.5897 15.4761 19.5897 16.8077 19.5897 18.2251H19.547C19.547 18.2681 19.547 18.311 19.5897 18.354C19.5897 18.7405 19.5897 19.1271 19.5897 19.5137C19.5897 22.4345 19.5043 24.3244 16.9863 26.7298C16.6875 26.9875 16.3461 27.2023 16.0047 27.4171C14.8096 28.1473 13.5293 28.4909 12.0782 28.4909C10.6271 28.4909 9.30404 28.1473 8.15171 27.4171C6.95669 26.6869 6.06043 25.6989 5.37757 24.4533C4.6947 23.2077 4.35327 21.7902 4.35327 20.2439C4.35327 18.6976 4.6947 17.2801 5.37757 16.0345C6.06043 14.7889 6.99937 13.8009 8.15171 13.1137C9.21868 12.4694 10.371 12.1258 11.6087 12.0399L10.0723 13.5862C9.26136 14.4023 9.26136 15.7768 10.0723 16.6358C10.8832 17.452 12.2489 17.452 13.1025 16.6358L18.1386 11.5674C18.9495 10.7513 18.9495 9.37678 18.1386 8.51772L13.0598 3.44926C12.2489 2.63316 10.8832 2.63316 10.0296 3.44926C9.21868 4.26537 9.21868 5.63987 10.0296 6.49893L11.6514 8.13115C11.4807 8.13115 11.3526 8.13115 11.1819 8.13115C9.09065 8.13115 7.21277 8.64658 5.5056 9.72041C3.79844 10.7942 2.47539 12.2117 1.49377 14.1016C0.46947 15.9056 0 17.9674 0 20.2439C0 22.5204 0.512149 24.5822 1.57913 26.4721C2.6461 28.3191 4.05451 29.7795 5.93239 30.8533C7.76759 31.9271 9.81619 32.4426 12.0355 32.4426C14.2548 32.4426 16.3034 31.9271 18.0959 30.8533C19.9311 29.7795 21.3395 28.3191 22.4065 26.4721C23.4735 24.6251 23.9856 22.5634 23.9856 20.2439V2.80497C23.9856 2.11772 23.7723 1.60228 23.3881 1.17275C23.004 0.786176 22.4492 0.571411 21.809 0.571411Z" fill="#222222"/>
</g>
<path d="M109.57 8.2H119.6C122.116 8.2 124.349 8.69867 126.298 9.696C128.247 10.6933 129.755 12.0987 130.82 13.912C131.908 15.7027 132.452 17.7653 132.452 20.1C132.452 22.4347 131.908 24.5087 130.82 26.322C129.755 28.1127 128.247 29.5067 126.298 30.504C124.349 31.5013 122.116 32 119.6 32H109.57V8.2ZM119.396 29.042C121.323 29.042 123.011 28.668 124.462 27.92C125.935 27.172 127.069 26.1293 127.862 24.792C128.655 23.432 129.052 21.868 129.052 20.1C129.052 18.332 128.655 16.7793 127.862 15.442C127.069 14.082 125.935 13.028 124.462 12.28C123.011 11.532 121.323 11.158 119.396 11.158H112.97V29.042H119.396Z" fill="#1E75C5"/>
<path d="M148.404 32.272C146.001 32.272 143.837 31.7507 141.91 30.708C139.983 29.6427 138.465 28.1807 137.354 26.322C136.266 24.4633 135.722 22.3893 135.722 20.1C135.722 17.8107 136.266 15.7367 137.354 13.878C138.465 12.0193 139.983 10.5687 141.91 9.526C143.837 8.46067 146.001 7.928 148.404 7.928C150.784 7.928 152.937 8.46067 154.864 9.526C156.791 10.5687 158.298 12.0193 159.386 13.878C160.474 15.714 161.018 17.788 161.018 20.1C161.018 22.412 160.474 24.4973 159.386 26.356C158.298 28.192 156.791 29.6427 154.864 30.708C152.937 31.7507 150.784 32.272 148.404 32.272ZM148.404 29.246C150.149 29.246 151.713 28.8493 153.096 28.056C154.501 27.2627 155.601 26.1747 156.394 24.792C157.21 23.3867 157.618 21.8227 157.618 20.1C157.618 18.3773 157.21 16.8247 156.394 15.442C155.601 14.0367 154.501 12.9373 153.096 12.144C151.713 11.3507 150.149 10.954 148.404 10.954C146.659 10.954 145.072 11.3507 143.644 12.144C142.239 12.9373 141.128 14.0367 140.312 15.442C139.519 16.8247 139.122 18.3773 139.122 20.1C139.122 21.8227 139.519 23.3867 140.312 24.792C141.128 26.1747 142.239 27.2627 143.644 28.056C145.072 28.8493 146.659 29.246 148.404 29.246Z" fill="#1E75C5"/>
<path d="M176.857 32.272C174.477 32.272 172.323 31.7507 170.397 30.708C168.493 29.6427 166.997 28.192 165.909 26.356C164.821 24.4973 164.277 22.412 164.277 20.1C164.277 17.788 164.821 15.714 165.909 13.878C166.997 12.0193 168.504 10.5687 170.431 9.526C172.357 8.46067 174.511 7.928 176.891 7.928C178.749 7.928 180.449 8.24533 181.991 8.88C183.532 9.492 184.847 10.41 185.935 11.634L183.725 13.776C181.934 11.8947 179.701 10.954 177.027 10.954C175.259 10.954 173.661 11.3507 172.233 12.144C170.805 12.9373 169.683 14.0367 168.867 15.442C168.073 16.8247 167.677 18.3773 167.677 20.1C167.677 21.8227 168.073 23.3867 168.867 24.792C169.683 26.1747 170.805 27.2627 172.233 28.056C173.661 28.8493 175.259 29.246 177.027 29.246C179.679 29.246 181.911 28.294 183.725 26.39L185.935 28.532C184.847 29.756 183.521 30.6853 181.957 31.32C180.415 31.9547 178.715 32.272 176.857 32.272Z" fill="#1E75C5"/>
<path d="M197.621 32.272C195.831 32.272 194.097 32 192.419 31.456C190.765 30.8893 189.461 30.164 188.509 29.28L189.767 26.628C190.674 27.444 191.83 28.1127 193.235 28.634C194.663 29.1327 196.125 29.382 197.621 29.382C199.593 29.382 201.067 29.0533 202.041 28.396C203.016 27.716 203.503 26.8207 203.503 25.71C203.503 24.894 203.231 24.2367 202.687 23.738C202.166 23.2167 201.509 22.82 200.715 22.548C199.945 22.276 198.845 21.97 197.417 21.63C195.627 21.1993 194.176 20.7687 193.065 20.338C191.977 19.9073 191.037 19.25 190.243 18.366C189.473 17.4593 189.087 16.2467 189.087 14.728C189.087 13.4587 189.416 12.314 190.073 11.294C190.753 10.274 191.773 9.458 193.133 8.846C194.493 8.234 196.182 7.928 198.199 7.928C199.605 7.928 200.987 8.10933 202.347 8.472C203.707 8.83467 204.875 9.356 205.849 10.036L204.727 12.756C203.73 12.1213 202.665 11.6453 201.531 11.328C200.398 10.988 199.287 10.818 198.199 10.818C196.273 10.818 194.822 11.1693 193.847 11.872C192.895 12.5747 192.419 13.4813 192.419 14.592C192.419 15.408 192.691 16.0767 193.235 16.598C193.779 17.0967 194.448 17.4933 195.241 17.788C196.057 18.06 197.157 18.3547 198.539 18.672C200.33 19.1027 201.769 19.5333 202.857 19.964C203.945 20.3947 204.875 21.052 205.645 21.936C206.439 22.82 206.835 24.01 206.835 25.506C206.835 26.7527 206.495 27.8973 205.815 28.94C205.135 29.96 204.104 30.776 202.721 31.388C201.339 31.9773 199.639 32.272 197.621 32.272Z" fill="#1E75C5"/>
<defs>
<clipPath id="clip0_2911_41059">
<rect width="96" height="32" fill="white" transform="translate(0 0.571411)"/>
</clipPath>
</defs>
</svg>
